Coordinates
version=1
nRows=13
nColumns=40
inDegrees=yes

Units are S.I. units (second, meters, Newtons, ...)
Angles are in degrees.

endheader
time	pelvis_tilt	pelvis_list	pelvis_rotation	pelvis_tx	pelvis_ty	pelvis_tz	hip_flexion_r	hip_adduction_r	hip_rotation_r	knee_angle_r	knee_angle_r_beta	ankle_angle_r	subtalar_angle_r	mtp_angle_r	hip_flexion_l	hip_adduction_l	hip_rotation_l	knee_angle_l	knee_angle_l_beta	ankle_angle_l	subtalar_angle_l	mtp_angle_l	lumbar_extension	lumbar_bending	lumbar_rotation	arm_flex_r	arm_add_r	arm_rot_r	elbow_flex_r	pro_sup_r	wrist_flex_r	wrist_dev_r	arm_flex_l	arm_add_l	arm_rot_l	elbow_flex_l	pro_sup_l	wrist_flex_l	wrist_dev_l
     33.34650000	     -8.86627652	     -7.56119580	      2.56310716	      1.05629514	      0.90909712	      0.47561517	      0.85490088	      5.44033979	    -15.48373096	      7.92297535	      7.92297535	     17.92165240	      7.40416754	     -1.55225310	     37.23861677	     -9.80351405	      1.76366049	     22.66495844	     22.66495844	      3.20767598	    -12.11193564	      7.17940292	    -10.43402320	      6.17500527	      5.55785734	     49.74675863	    -13.38235326	      1.28539991	    116.92760392	     43.87853824	      0.00000000	      0.00000000	    -18.31623471	     -8.13070228	      3.50293117	     28.15553856	     45.38226806	      0.00000000	      0.00000000
     33.35800000	     -8.83611578	     -7.39056180	      2.43940540	      1.05818093	      0.90805272	      0.47331850	      0.25553657	      5.06743518	    -15.25359317	      8.20721490	      8.20721490	     18.27221463	      7.33596509	     -1.59387988	     36.90279524	     -9.59205608	      1.48783643	     23.44742520	     23.44742520	      2.72921394	    -12.46204435	      7.08090336	    -10.18017092	      5.93716897	      5.54429428	     50.63662484	    -13.00270856	      1.24142603	    117.62179818	     43.86733887	      0.00000000	      0.00000000	    -18.78044370	     -7.99257461	      3.64345157	     27.91244059	     45.35440467	      0.00000000	      0.00000000
     33.36950000	     -8.75949560	     -7.27872586	      2.44030161	      1.05978737	      0.90720834	      0.47078376	     -0.09625135	      4.67850644	    -15.13457584	      9.02851725	      9.02851725	     18.72611465	      6.97481188	     -1.59038425	     36.62708633	     -9.33963008	      1.59297044	     24.36410676	     24.36410676	      2.36012793	    -12.93003242	      6.62262192	    -10.10616758	      5.85776868	      5.21869494	     51.53223393	    -12.14449120	      1.41444810	    119.13199176	     43.82976492	      0.00000000	      0.00000000	    -19.12552830	     -7.76726814	      3.93503438	     27.60604948	     45.30723894	      0.00000000	      0.00000000
     33.38100000	     -8.73840980	     -7.04992872	      2.41026683	      1.06125087	      0.90669514	      0.46810857	     -0.24319172	      4.11237795	    -14.91960335	     10.10246355	     10.10246355	     19.19060205	      6.49872386	     -1.38751454	     36.38397185	     -8.96976275	      1.71761152	     25.27138710	     25.27138710	      2.07926311	    -13.55819414	      5.97876586	     -9.97593146	      5.58725216	      5.10846254	     51.84153561	    -11.80415977	      1.57250300	    120.61621750	     43.80449663	      0.00000000	      0.00000000	    -19.17375953	     -7.65490121	      4.41218046	     27.25942097	     45.24117772	      0.00000000	      0.00000000
     33.39250000	     -8.51890373	     -6.90304809	      2.42988672	      1.06266757	      0.90678741	      0.46532789	     -0.63271205	      3.64106429	    -14.80490152	     11.06877240	     11.06877240	     19.32840923	      6.16410681	     -1.47095319	     36.01647266	     -8.67732824	      1.93520204	     26.33902356	     26.33902356	      2.37198612	    -14.00427644	      5.68497971	    -10.06268687	      5.41740401	      5.00138008	     52.16678645	    -11.57216097	      1.61607065	    121.30473335	     43.78934535	      0.00000000	      0.00000000	    -19.07805724	     -7.52638798	      4.55059594	     27.14198338	     45.22400618	      0.00000000	      0.00000000
     33.40400000	     -8.51268964	     -6.70759502	      2.43997566	      1.06355396	      0.90684539	      0.46236381	     -0.30731101	      2.97943690	    -14.63353385	     12.90746301	     12.90746301	     19.60360438	      5.41042038	     -1.78339850	     35.86682996	     -8.28468713	      2.19077243	     27.32736561	     27.32736561	      2.78449033	    -14.46231257	      5.65523064	    -10.05686831	      5.26362711	      4.83832237	     52.32096127	    -11.25107137	      1.75972759	    122.72963006	     43.75355666	      0.00000000	      0.00000000	    -18.74061171	     -7.33511354	      4.80142161	     26.89603498	     45.19703009	      0.00000000	      0.00000000
     33.41550000	     -8.44601099	     -6.50031622	      2.47145292	      1.06447287	      0.90740819	      0.45928431	     -0.05063617	      2.31458782	    -14.39964092	     14.69019756	     14.69019756	     19.52350071	      4.56103216	     -2.41853206	     35.62179559	     -7.84645216	      2.49223159	     28.31517023	     28.31517023	      4.01663979	    -14.75093642	      7.18003381	    -10.09198574	      5.06838905	      5.32715984	     51.69342503	    -11.84192246	      1.47559688	    124.68116846	     43.75720897	      0.00000000	      0.00000000	    -17.71891202	     -7.31556973	      5.64445412	     26.01824129	     45.11400317	      0.00000000	      0.00000000
     33.42700000	     -8.16089759	     -6.42613326	      2.50225639	      1.06545721	      0.90849746	      0.45627718	     -0.00976193	      1.78368195	    -14.28964111	     16.48736534	     16.48736534	     19.35788443	      4.02817956	     -2.82317163	     35.02817070	     -7.60225431	      2.67465429	     29.04487030	     29.04487030	      4.73705969	    -15.05935403	      7.02433015	    -10.34886053	      5.02517361	      5.15759798	     51.32340380	    -11.61435246	      1.61557912	    125.08143160	     43.74402711	      0.00000000	      0.00000000	    -17.24212725	     -7.20271720	      5.72712006	     26.11234816	     45.11251540	      0.00000000	      0.00000000
     33.43850000	     -8.27769213	     -6.21263419	      2.47641542	      1.06594038	      0.90926117	      0.45314992	      0.88549468	      1.00598069	    -13.92517920	     18.95825953	     18.95825953	     18.63973192	      2.74466222	     -4.84303919	     34.77505455	     -7.14612415	      2.85882668	     29.61801351	     29.61801351	      5.98647241	    -15.31127403	      8.59699070	    -10.23123167	      4.88031856	      5.48596447	     50.44613273	    -12.12957105	      1.52672373	    126.67888550	     43.73454259	      0.00000000	      0.00000000	    -16.34551163	     -7.17085784	      6.00431222	     26.06940337	     45.11144858	      0.00000000	      0.00000000
     33.45000000	     -8.17533072	     -6.06062889	      2.43140785	      1.06653920	      0.91048187	      0.45018457	      1.60037263	      0.26619445	    -13.70459961	     21.55166287	     21.55166287	     18.14123475	      1.94999828	     -5.70832780	     34.16541663	     -6.87240491	      2.74508421	     29.95010457	     29.95010457	      6.71600613	    -15.39334438	      8.57455059	    -10.31763440	      4.78319265	      5.34101826	     49.63534114	    -12.01683098	      1.65735153	    126.91398155	     43.72708470	      0.00000000	      0.00000000	    -15.67779048	     -7.06618468	      6.03925096	     26.30904924	     45.12318578	      0.00000000	      0.00000000
     33.46150000	     -8.11429225	     -5.94140849	      2.37716312	      1.06703682	      0.91173976	      0.44730383	      2.52937137	     -0.44462449	    -13.36575152	     24.38721681	     24.38721681	     17.34915606	      0.93895038	     -6.80807793	     33.51274978	     -6.61703144	      2.65516872	     30.10209978	     30.10209978	      7.42245508	    -15.52393796	      8.65901625	    -10.35175468	      4.73221634	      5.29932312	     48.51425647	    -12.11180275	      1.76952918	    127.15958573	     43.71830334	      0.00000000	      0.00000000	    -14.94527226	     -7.03792075	      5.99047657	     26.70696981	     45.14876412	      0.00000000	      0.00000000
     33.47300000	     -7.90184148	     -5.89906946	      2.35423810	      1.06756137	      0.91326657	      0.44458510	      3.34248550	     -1.05199607	    -13.04774703	     27.24839551	     27.24839551	     16.33752633	     -0.01315301	     -7.72449223	     32.65187705	     -6.44602071	      2.62463186	     30.16376463	     30.16376463	      8.13251621	    -15.58955140	      8.62252540	    -10.53637692	      4.75378314	      5.26142640	     47.24303635	    -12.16529306	      1.89694221	    127.17221045	     43.71233189	      0.00000000	      0.00000000	    -14.14081599	     -7.01807938	      5.91121768	     27.19271004	     45.17773027	      0.00000000	      0.00000000
     33.48450000	     -8.06480644	     -5.76809231	      2.25910383	      1.06757363	      0.91422359	      0.44211910	      4.71018789	     -1.64458871	    -12.25972346	     29.96513620	     29.96513620	     12.71196366	     -3.04903053	    -15.10131969	     32.22432521	     -6.21208234	      2.43242669	     30.24049671	     30.24049671	      9.14460494	    -15.46477899	      9.98834404	    -10.37354081	      4.61856650	      5.56989548	     45.50972671	    -12.79347020	      1.33660196	    127.71448376	     43.77200422	      0.00000000	      0.00000000	    -13.50831402	     -7.18208742	      5.04463077	     28.83927886	     45.36383284	      0.00000000	      0.00000000
